<svg width="225" height="30" viewBox="0 0 225 30" fill="none" xmlns="http://www.w3.org/2000/svg">
<mask id="mask0_89_1185" style="mask-type:luminance" maskUnits="userSpaceOnUse" x="0" y="0" width="34" height="25">
<path d="M0.176758 0.869873H33.0309V24.3334H0.176758V0.869873Z" fill="white"></path>
</mask>
<g mask="url(#mask0_89_1185)">
<path d="M25.5726 8.25008C25.4007 4.1355 22.0101 0.854248 17.8538 0.854248C14.5153 0.854248 11.6716 2.97404 10.5934 5.93758C10.2236 5.86467 9.83822 5.82821 9.44238 5.82821C6.06217 5.82821 3.32259 8.56779 3.32259 11.948C3.32259 12.0261 3.33301 12.1042 3.33822 12.1824C1.53093 13.2657 0.317383 15.2345 0.317383 17.4897C0.317383 20.9115 3.08822 23.6824 6.50488 23.6824H8.02572C7.80176 21.2292 8.62467 18.7032 10.4945 16.8334C12.1143 15.2136 14.2705 14.323 16.557 14.323C18.8486 14.323 21.0049 15.2136 22.6195 16.8334C24.4945 18.7032 25.3174 21.2292 25.0934 23.6824H25.5778V23.6615C29.609 23.4011 32.8018 20.0522 32.8018 15.9584C32.8018 11.8595 29.6038 8.50529 25.5726 8.25008Z" fill="#8C7BFC"></path>
</g>
<path d="M21.1667 18.2864C19.9375 17.0572 18.3021 16.3801 16.5573 16.3801C14.8177 16.3801 13.1823 17.0572 11.9531 18.2864C9.41146 20.828 9.41146 24.9635 11.9531 27.5051C13.1823 28.7343 14.8177 29.4114 16.5573 29.4114C18.3021 29.4114 19.9375 28.7343 21.1667 27.5051C23.7083 24.9635 23.7083 20.828 21.1667 18.2864ZM17.1302 27.4739C17.1042 27.4895 17.0781 27.4999 17.0521 27.5155C17.0208 27.5312 16.9896 27.552 16.9531 27.5676C16.9219 27.5833 16.8854 27.5885 16.849 27.5989C16.8229 27.6093 16.7917 27.6197 16.7604 27.6249C16.6927 27.6405 16.625 27.6458 16.5573 27.6458C16.4896 27.6458 16.4219 27.6405 16.3594 27.6249C16.3281 27.6197 16.2969 27.6093 16.2656 27.5989C16.2344 27.5885 16.1979 27.5833 16.1667 27.5676C16.1302 27.552 16.0937 27.5312 16.0625 27.5103C16.0365 27.4999 16.0104 27.4895 15.9896 27.4739C15.9323 27.4374 15.8802 27.3905 15.8281 27.3437L12.8594 24.3697C12.4531 23.9687 12.4531 23.3176 12.8594 22.9166C13.2604 22.5155 13.9115 22.5155 14.3125 22.9166L15.5313 24.1353V19.177C15.5313 18.6041 15.9896 18.1458 16.5573 18.1458C17.1302 18.1458 17.5885 18.6041 17.5885 19.177V24.1353L18.8073 22.9166C19.2083 22.5103 19.8594 22.5103 20.2604 22.9166C20.6615 23.3176 20.6615 23.9687 20.2604 24.3697L17.2865 27.3437C17.2396 27.3905 17.1875 27.4322 17.1302 27.4739Z" fill="#8C7BFC"></path>
<path d="M42.4336 8.62598C44.6419 8.62598 46.3346 9.15723 47.5169 10.2093C48.7096 11.2666 49.3086 12.8551 49.3086 14.9801V23.126H45.4336V21.3551C44.6523 22.6781 43.2044 23.3343 41.0794 23.3343C39.9805 23.3343 39.0273 23.152 38.2253 22.7926C37.418 22.4176 36.7982 21.9072 36.3711 21.251C35.9544 20.5843 35.7461 19.8447 35.7461 19.0218C35.7461 17.6885 36.2461 16.6416 37.2461 15.876C38.2461 15.1156 39.7878 14.7301 41.8711 14.7301H45.1628C45.1628 13.8291 44.8815 13.1364 44.3294 12.6468C43.7878 12.1624 42.9648 11.9176 41.8711 11.9176C41.1211 11.9176 40.3763 12.0426 39.6419 12.2926C38.9023 12.5322 38.2773 12.8499 37.7669 13.251L36.2878 10.3551C37.0638 9.81348 37.9961 9.3916 39.0794 9.08431C40.1628 8.78223 41.2773 8.62598 42.4336 8.62598ZM42.1211 20.5426C42.8294 20.5426 43.4544 20.3864 43.9961 20.0635C44.5482 19.7301 44.9388 19.2458 45.1628 18.6051V17.1468H42.3294C40.6315 17.1468 39.7878 17.7093 39.7878 18.8343C39.7878 19.3656 39.9961 19.7822 40.4128 20.0843C40.8294 20.3916 41.3971 20.5426 42.1211 20.5426Z" fill="#171E6C"></path>
<path d="M51.3848 3.43848H55.5098V23.126H51.3848V3.43848Z" fill="#171E6C"></path>
<path d="M57.7002 3.43848H61.8252V23.126H57.7002V3.43848Z" fill="#171E6C"></path>
<path d="M78.4056 8.85522V23.1261H74.4889V21.4177C73.9316 22.0427 73.2702 22.5219 72.5098 22.8552C71.7598 23.1729 70.9368 23.3344 70.0514 23.3344C68.1764 23.3344 66.6868 22.8031 65.5931 21.7302C64.4941 20.6469 63.9473 19.0427 63.9473 16.9177V8.85522H68.0931V16.3136C68.0931 18.6052 69.0566 19.7511 70.9889 19.7511C71.9733 19.7511 72.765 19.4334 73.3639 18.7927C73.9577 18.1417 74.2598 17.1781 74.2598 15.8969V8.85522H78.4056Z" fill="#8C7BFC"></path>
<path d="M85.3818 23.3343C84.1995 23.3343 83.0381 23.1885 81.9027 22.8968C80.7777 22.6051 79.8714 22.2406 79.1943 21.7926L80.5902 18.8343C81.2256 19.2406 81.9964 19.5739 82.9027 19.8343C83.8037 20.0843 84.6839 20.2093 85.5485 20.2093C87.2985 20.2093 88.1735 19.7718 88.1735 18.8968C88.1735 18.4958 87.9287 18.2093 87.4443 18.0426C86.9704 17.8656 86.2412 17.7093 85.2568 17.5843C84.0902 17.4072 83.1214 17.2041 82.361 16.9801C81.5954 16.7458 80.9339 16.3343 80.3818 15.751C79.8245 15.1676 79.5485 14.3343 79.5485 13.251C79.5485 12.3499 79.8037 11.5531 80.3193 10.8551C80.8454 10.1468 81.611 9.59994 82.611 9.20931C83.611 8.82389 84.7881 8.62598 86.1527 8.62598C87.1631 8.62598 88.1735 8.74056 89.1735 8.95931C90.1735 9.18327 90.9964 9.49056 91.6527 9.87598L90.2777 12.8343C89.012 12.126 87.637 11.7718 86.1527 11.7718C85.2777 11.7718 84.6162 11.8968 84.1735 12.1468C83.7256 12.3864 83.5068 12.6989 83.5068 13.0843C83.5068 13.5322 83.7412 13.8447 84.2152 14.0218C84.6995 14.2041 85.4652 14.3708 86.5068 14.5218C87.6735 14.7197 88.6214 14.9281 89.361 15.1468C90.111 15.3708 90.7568 15.7718 91.2985 16.3551C91.8506 16.9385 92.1318 17.751 92.1318 18.7926C92.1318 19.6833 91.861 20.4749 91.3193 21.1676C90.7881 21.8499 90.0173 22.3864 89.0068 22.7718C87.9912 23.1468 86.7829 23.3343 85.3818 23.3343Z" fill="#8C7BFC"></path>
<path d="M106.988 16.0426C106.988 16.0999 106.957 16.4697 106.905 17.1468H96.113C96.3057 18.0374 96.764 18.7406 97.488 19.251C98.2067 19.7666 99.113 20.0218 100.196 20.0218C100.931 20.0218 101.582 19.9124 102.155 19.6885C102.738 19.4697 103.28 19.1208 103.78 18.6468L105.988 21.0218C104.639 22.5635 102.675 23.3343 100.092 23.3343C98.4775 23.3343 97.0557 23.0218 95.8213 22.3968C94.5817 21.7718 93.6234 20.9072 92.9463 19.7926C92.2796 18.6676 91.9463 17.3968 91.9463 15.9801C91.9463 14.5947 92.2692 13.3343 92.9255 12.2093C93.5921 11.0843 94.4984 10.2093 95.6546 9.58431C96.8213 8.94889 98.1182 8.62598 99.5505 8.62598C100.951 8.62598 102.217 8.93327 103.342 9.54264C104.478 10.1416 105.368 11.001 106.009 12.126C106.66 13.251 106.988 14.5583 106.988 16.0426ZM99.5921 11.7718C98.6442 11.7718 97.8525 12.0374 97.2171 12.5635C96.5765 13.0947 96.1859 13.8135 96.0505 14.7301H103.092C102.951 13.8291 102.561 13.1156 101.925 12.5843C101.285 12.0426 100.509 11.7718 99.5921 11.7718Z" fill="#8C7BFC"></path>
<path d="M112.04 10.7301C112.525 10.0374 113.186 9.5166 114.02 9.16764C114.863 8.80827 115.837 8.62598 116.936 8.62598V12.4593C116.478 12.4176 116.171 12.3968 116.02 12.3968C114.822 12.3968 113.884 12.7301 113.207 13.3968C112.54 14.0635 112.207 15.0583 112.207 16.376V23.126H108.082V8.85514H112.04V10.7301Z" fill="#8C7BFC"></path>
<path d="M136.145 8.62598C137.921 8.62598 139.338 9.15723 140.395 10.2093C141.447 11.2666 141.979 12.8499 141.979 14.9593V23.126H137.833V15.5843C137.833 14.4593 137.593 13.6208 137.124 13.0635C136.666 12.4958 135.999 12.2093 135.124 12.2093C134.15 12.2093 133.38 12.5322 132.812 13.1676C132.239 13.7926 131.958 14.7249 131.958 15.9593V23.126H127.833V15.5843C127.833 13.3343 126.926 12.2093 125.124 12.2093C124.166 12.2093 123.4 12.5322 122.833 13.1676C122.26 13.7926 121.979 14.7249 121.979 15.9593V23.126H117.854V8.85514H121.812V10.501C122.338 9.8916 122.984 9.42806 123.749 9.10514C124.525 8.78744 125.374 8.62598 126.291 8.62598C127.291 8.62598 128.197 8.8291 129.02 9.23014C129.838 9.63639 130.489 10.2197 130.979 10.9801C131.562 10.2301 132.296 9.65723 133.187 9.25098C134.088 8.83431 135.072 8.62598 136.145 8.62598Z" fill="#171E6C"></path>
<path d="M149.77 8.62598C151.978 8.62598 153.671 9.15723 154.853 10.2093C156.046 11.2666 156.645 12.8551 156.645 14.9801V23.126H152.77V21.3551C151.988 22.6781 150.54 23.3343 148.415 23.3343C147.316 23.3343 146.363 23.152 145.561 22.7926C144.754 22.4176 144.134 21.9072 143.707 21.251C143.29 20.5843 143.082 19.8447 143.082 19.0218C143.082 17.6885 143.582 16.6416 144.582 15.876C145.582 15.1156 147.124 14.7301 149.207 14.7301H152.499C152.499 13.8291 152.217 13.1364 151.665 12.6468C151.124 12.1624 150.301 11.9176 149.207 11.9176C148.457 11.9176 147.712 12.0426 146.978 12.2926C146.238 12.5322 145.613 12.8499 145.103 13.251L143.624 10.3551C144.4 9.81348 145.332 9.3916 146.415 9.08431C147.499 8.78223 148.613 8.62598 149.77 8.62598ZM149.457 20.5426C150.165 20.5426 150.79 20.3864 151.332 20.0635C151.884 19.7301 152.275 19.2458 152.499 18.6051V17.1468H149.665C147.967 17.1468 147.124 17.7093 147.124 18.8343C147.124 19.3656 147.332 19.7822 147.749 20.0843C148.165 20.3916 148.733 20.5426 149.457 20.5426Z" fill="#171E6C"></path>
<path d="M167.388 8.62598C169.164 8.62598 170.597 9.16244 171.68 10.2301C172.763 11.2874 173.305 12.8656 173.305 14.9593V23.126H169.18V15.5843C169.18 14.4593 168.93 13.6208 168.43 13.0635C167.93 12.4958 167.211 12.2093 166.284 12.2093C165.243 12.2093 164.409 12.5374 163.784 13.1885C163.159 13.8291 162.847 14.7874 162.847 16.0635V23.126H158.722V8.85514H162.68V10.5218C163.222 9.92806 163.894 9.45931 164.701 9.12598C165.519 8.79264 166.414 8.62598 167.388 8.62598Z" fill="#171E6C"></path>
<path d="M189.762 8.85522V23.1261H185.845V21.4177C185.288 22.0427 184.627 22.5219 183.866 22.8552C183.116 23.1729 182.293 23.3344 181.408 23.3344C179.533 23.3344 178.043 22.8031 176.95 21.7302C175.851 20.6469 175.304 19.0427 175.304 16.9177V8.85522H179.45V16.3136C179.45 18.6052 180.413 19.7511 182.345 19.7511C183.33 19.7511 184.121 19.4334 184.72 18.7927C185.314 18.1417 185.616 17.1781 185.616 15.8969V8.85522H189.762Z" fill="#171E6C"></path>
<path d="M197.696 8.62598C199.905 8.62598 201.597 9.15723 202.78 10.2093C203.972 11.2666 204.571 12.8551 204.571 14.9801V23.126H200.696V21.3551C199.915 22.6781 198.467 23.3343 196.342 23.3343C195.243 23.3343 194.29 23.152 193.488 22.7926C192.681 22.4176 192.061 21.9072 191.634 21.251C191.217 20.5843 191.009 19.8447 191.009 19.0218C191.009 17.6885 191.509 16.6416 192.509 15.876C193.509 15.1156 195.05 14.7301 197.134 14.7301H200.425C200.425 13.8291 200.144 13.1364 199.592 12.6468C199.05 12.1624 198.228 11.9176 197.134 11.9176C196.384 11.9176 195.639 12.0426 194.905 12.2926C194.165 12.5322 193.54 12.8499 193.03 13.251L191.55 10.3551C192.326 9.81348 193.259 9.3916 194.342 9.08431C195.425 8.78223 196.54 8.62598 197.696 8.62598ZM197.384 20.5426C198.092 20.5426 198.717 20.3864 199.259 20.0635C199.811 19.7301 200.201 19.2458 200.425 18.6051V17.1468H197.592C195.894 17.1468 195.05 17.7093 195.05 18.8343C195.05 19.3656 195.259 19.7822 195.675 20.0843C196.092 20.3916 196.66 20.5426 197.384 20.5426Z" fill="#171E6C"></path>
<path d="M206.647 3.43848H210.772V23.126H206.647V3.43848Z" fill="#171E6C"></path>
<path d="M217.755 23.3343C216.573 23.3343 215.411 23.1885 214.276 22.8968C213.151 22.6051 212.244 22.2406 211.567 21.7926L212.963 18.8343C213.599 19.2406 214.369 19.5739 215.276 19.8343C216.177 20.0843 217.057 20.2093 217.922 20.2093C219.672 20.2093 220.547 19.7718 220.547 18.8968C220.547 18.4958 220.302 18.2093 219.817 18.0426C219.343 17.8656 218.614 17.7093 217.63 17.5843C216.463 17.4072 215.494 17.2041 214.734 16.9801C213.968 16.7458 213.307 16.3343 212.755 15.751C212.198 15.1676 211.922 14.3343 211.922 13.251C211.922 12.3499 212.177 11.5531 212.692 10.8551C213.218 10.1468 213.984 9.59994 214.984 9.20931C215.984 8.82389 217.161 8.62598 218.526 8.62598C219.536 8.62598 220.547 8.74056 221.547 8.95931C222.547 9.18327 223.369 9.49056 224.026 9.87598L222.651 12.8343C221.385 12.126 220.01 11.7718 218.526 11.7718C217.651 11.7718 216.989 11.8968 216.547 12.1468C216.099 12.3864 215.88 12.6989 215.88 13.0843C215.88 13.5322 216.114 13.8447 216.588 14.0218C217.073 14.2041 217.838 14.3708 218.88 14.5218C220.047 14.7197 220.994 14.9281 221.734 15.1468C222.484 15.3708 223.13 15.7718 223.672 16.3551C224.224 16.9385 224.505 17.751 224.505 18.7926C224.505 19.6833 224.234 20.4749 223.692 21.1676C223.161 21.8499 222.39 22.3864 221.38 22.7718C220.364 23.1468 219.156 23.3343 217.755 23.3343Z" fill="#171E6C"></path>
</svg>
